<?xml version="1.0" encoding="utf-8"?>
<!-- Generator: Adobe Illustrator 27.0.0, SVG Export Plug-In . SVG Version: 6.00 Build 0)  -->
<svg version="1.1" id="图层_1" xmlns="http://www.w3.org/2000/svg" xmlns:xlink="http://www.w3.org/1999/xlink" x="0px" y="0px"
	 viewBox="0 0 2459.3 566.9" style="enable-background:new 0 0 2459.3 566.9;" xml:space="preserve">
<style type="text/css">
	.st0{fill:#0068B6;}
	.st1{fill:url(#SVGID_1_);}
	.st2{fill:#FFFFFF;}
	.st3{fill:url(#SVGID_00000022534377304419630200000013682937858326959289_);}
</style>
<g>
	<g>
		<path class="st0" d="M790.7,343.6c6.7-18.3,11.4-48.9,13.6-71.3L824,275c-1.4,23-6.4,55-13.1,75.8L790.7,343.6z M998.4,257.8
			c20.3,23.9,41.6,55.5,51.1,76.9l-21.7,12.8c-2.5-6.1-6.1-12.5-10-20c-104.4,8.3-118,9.7-127.1,13.3c-1.1-4.2-4.2-13.9-6.9-20.5
			L874,325c-3.3-13.3-11.1-35.5-18.3-52.8v201h-25.5V218.7h25.5v52.2l19.2-7.8c6.4,14.2,13.9,32.5,18,45.5c1.9-2.5,4.4-5.8,7.2-9.4
			c6.7-9.4,28.6-45.8,41.9-80.8l26.4,7.5c-13.3,30-30.5,60.2-47.7,84.7l83.6-5.6c-8.3-13-17.5-25.8-26.1-36.6L998.4,257.8z
			 M900.4,360.3H1025v112.4h-24.7v-11.1H924v11.7h-23.6V360.3z M924,383v55.8h76.3V383H924z"/>
		<path class="st0" d="M1469.2,433.8v24.7h-252.4v-24.7h77.5V260.3h-69.1v-25.5h237.4v25.5h-73.3v173.5H1469.2z M1249.6,295
			c13.6,30,30.3,69.4,37.5,93l-25,10.6c-6.1-24.2-21.7-64.7-35-95.5L1249.6,295z M1322.3,433.8h38.9V260.3h-38.9V433.8z M1394,388
			c13-24.4,29.4-63,38-93l25.3,8c-11.4,32.5-27.2,68.9-40.3,93.6L1394,388z"/>
		<path class="st0" d="M1729.6,388.6c-3.9-8.3-13.3-23.9-21.7-36.6v121.3h-25V360.8c-10.3,25.3-22.8,48.9-35.5,64.7
			c-2.5-6.9-8.6-17.5-12.5-23.9c16.4-18.9,34.1-51.9,44.4-81.3h-40.8v-24.2h44.4v-37.2c-11.9,2.2-23.9,3.9-35,5.6
			c-0.8-5.6-4.4-14.7-7.2-20c31.1-5,66.6-13,88.3-22.5l14.7,21.1c-10.5,4.2-22.8,7.5-35.8,10.5v42.5h38.9v24.2h-38.9v3.9
			c8.3,8.6,31.9,36.9,37.2,44.1L1729.6,388.6z M1859.8,402.2v71.1h-25.5v-66.6l-87.5,14.7l-3.9-24.7l91.3-15.3V218.7h25.5v158.5
			l30.3-5l3.9,24.2L1859.8,402.2z M1799.2,364.7c-9.2-11.9-29.4-29.7-46.4-41.4l16.4-15c16.7,11.1,37.8,27.8,47.5,39.4L1799.2,364.7
			z M1806.2,291.7c-8.3-11.7-27.2-28.6-43-40.3l16.9-14.7c15.8,10.8,35,26.9,44.1,38.6L1806.2,291.7z"/>
		<path class="st0" d="M2153.2,361.6c-10.5,3.1-21.1,6.1-31.6,9.2v73c0,13.3-2.8,20.3-10.8,24.2c-8.1,3.9-20.5,4.7-39.4,4.4
			c-1.1-6.1-4.4-16.9-7.8-23.3c12.2,0.3,23.9,0.3,27.2,0c4.2,0,5.5-1.4,5.5-5.3V378c-10.8,3.1-20.8,5.8-30.5,8.3l-6.7-24.7
			c10.6-2.5,23.3-5.6,37.2-8.9V297h-34.1v-23.9h34.1v-54.4h25.3v54.1h29.2V297h-29.2v48.9l28.6-7.5L2153.2,361.6z M2302.8,327.8
			c-11.1,38.3-29.7,68.6-54.1,91.9c19.2,14.4,41.9,25.3,68.3,32.2c-5.8,5-13,15.3-16.7,21.9c-28-8-51.6-20.5-71.9-37.5
			c-22.2,16.7-48,28.9-75.8,36.9c-2.8-6.7-9.2-17.8-13.9-23.3c25.8-6.4,50-16.9,71.3-31.4c-18.3-20.3-32.5-44.1-43-71.9l3.6-1.1
			h-11.1v-23.6h57.2v-38h-62.2v-23.6h62.2v-41.6h25.5v41.6h64.1v23.6h-64.1v38h39.4l4.4-0.8L2302.8,327.8z M2192.3,345.5
			c8.9,21.7,21.1,40.8,37.2,57.2c17.2-15.8,31.1-35,40.5-57.2H2192.3z"/>
		<g>
			<path class="st0" d="M825.3,149.2l-27.5-47.4h19.4l9.2,18.2c2.6,5.6,5.1,10.8,7.9,16.6h0.5c2.8-5.8,5.6-11,8.2-16.6l9.2-18.2
				h19.1l-27.6,47.4v27.4h-18.3V149.2z"/>
			<path class="st0" d="M881.8,101.9h18.3v74.7h-18.3V101.9z"/>
			<path class="st0" d="M938.1,149.2l-27.5-47.4h19.4l9.2,18.2c2.6,5.6,5.1,10.8,7.9,16.6h0.5c2.8-5.8,5.6-11,8.2-16.6l9.2-18.2
				h19.1l-27.6,47.4v27.4h-18.3V149.2z"/>
			<path class="st0" d="M1035.2,157.4h-29.7l-6.4,19.2h-18.6l29.4-74.7h21.6l29.5,74.7h-19.2L1035.2,157.4z M1031.3,145.8l-2.7-8.2
				c-2.8-7.8-5.3-16.4-8-24.4h-0.5c-2.4,8.2-5.1,16.7-7.8,24.4l-2.7,8.2H1031.3z"/>
			<path class="st0" d="M1118,114.3h-25.8v-12.4h70.1v12.4h-26v62.3H1118V114.3z"/>
			<path class="st0" d="M1177.2,101.9h56.2v12.4h-37.9v17.3h32.2v12.5h-32.2v20h39.3v12.5h-57.6V101.9z"/>
			<path class="st0" d="M1248.8,139.5c0-24.6,19.4-39.1,42.6-39.1c11.6,0,20.9,4.5,26.9,9.6l-9.7,9.5c-4.6-3.6-9.9-6.3-16.8-6.3
				c-13.9,0-24.3,9.7-24.3,25.8c0,16.3,9.4,26.1,23.9,26.1c7.8,0,14-3,18.9-7.4l9.7,9.3c-7.6,7.2-17.3,11-29.2,11
				C1267.6,178,1248.8,164.5,1248.8,139.5z"/>
			<path class="st0" d="M1334.8,101.9h18.3v29.4h34.7v-29.4h18.2v74.7h-18.2v-32.3h-34.7v32.3h-18.3V101.9z"/>
		</g>
	</g>
	<g>
		<linearGradient id="SVGID_1_" gradientUnits="userSpaceOnUse" x1="382.0847" y1="32.9171" x2="189.4389" y2="326.8257">
			<stop  offset="1.079719e-03" style="stop-color:#0068B6"/>
			<stop  offset="1" style="stop-color:#87C796"/>
		</linearGradient>
		<path class="st1" d="M222.5,87.5c25.1,51.1,50.2,102.1,75.3,153.2c5.3,10.8,10.6,21.7,16.5,33.8c3.7-7.9,7.1-14.8,10.3-21.7
			C349.3,199.4,374,146,398.8,92.6c1.4-3,2.3-5.6,6.6-5.6c30.3,0.2,60.7,0.1,92.2,0.1c-8,17.2-15.4,33.5-22.9,49.7
			c-53.8,116.6-107.6,233.2-161.2,349.9c-2.7,5.9-5.7,8.4-12.5,8.3c-28-0.4-56-0.3-84,0c-6.7,0.1-8.4-1.1-5.2-7.8
			c15.9-33.5,31.4-67.2,47.3-100.7c2.2-4.6,2.1-8.1-0.2-12.7c-35.6-71.7-71-143.5-106.5-215.3c-11.5-23.3-23.3-46.6-35-69.9
			c-0.4-0.7-0.8-1.3,0.2-1.8c4.7-1.4,9.6-0.6,14.4-0.6c27.6-0.1,55.2-0.1,82.8,0C217.4,86.4,220.2,85.4,222.5,87.5z"/>
		<path class="st2" d="M575.3,191.7c-13.6-13.8-26.7-28-40.9-41.1c-10.8-10-14.5-21-9.5-34.6c5.4-14.6,15.5-24.5,31.2-27.2
			c20.2-3.4,36.4,4.2,49.7,19.4c8.6,9.8,18.2,18.8,27.4,28.1c0,3.9-2.6,6.4-5.2,8.6c-16.1,14-31.2,29.1-46,44.5
			C580.3,191.1,578.5,193.8,575.3,191.7z"/>
		
			<linearGradient id="SVGID_00000116227197804133956550000000640207818883520169_" gradientUnits="userSpaceOnUse" x1="524.0779" y1="298.0569" x2="670.6041" y2="155.1387">
			<stop  offset="1.079719e-03" style="stop-color:#0068B6"/>
			<stop  offset="1" style="stop-color:#87C796"/>
		</linearGradient>
		<path style="fill:url(#SVGID_00000116227197804133956550000000640207818883520169_);" d="M633.2,136.3L482.8,285.1
			c0,0-24.8,26.6-2.7,50.9s46.6,13.5,56.1,5.2c9.4-8.3,128.1-125.6,128.1-125.6s8.1-8.1,10.6-18.2c1.8-7.3,0-18.6-4.9-23
			C669.8,174.2,633.2,136.3,633.2,136.3z"/>
	</g>
</g>
</svg>
