<?xml version="1.0" encoding="utf-8"?>
<!-- Generator: Adobe Illustrator 27.0.0, SVG Export Plug-In . SVG Version: 6.00 Build 0)  -->
<svg version="1.1" id="图层_1" xmlns="http://www.w3.org/2000/svg" xmlns:xlink="http://www.w3.org/1999/xlink" x="0px" y="0px"
	 viewBox="0 0 566.9 566.9" style="enable-background:new 0 0 566.9 566.9;" xml:space="preserve">
<style type="text/css">
	.st0{fill:#0068B7;}
	.st1{fill:url(#SVGID_1_);}
	.st2{fill:#FFFFFF;}
	.st3{fill:url(#SVGID_00000075872660330510165540000005549380501499158425_);}
</style>
<g>
	<g>
		<path class="st0" d="M297.6,403.7l-19.3-33.2H292l6.4,12.8c1.8,3.9,3.6,7.6,5.6,11.6h0.3c2-4,3.9-7.7,5.7-11.6l6.4-12.8h13.4
			l-19.4,33.2v19.2h-12.9v-19.2H297.6z"/>
		<path class="st0" d="M337.3,370.5h12.9v52.4h-12.9V370.5z"/>
		<path class="st0" d="M376.8,403.7l-19.3-33.2h13.6l6.4,12.8c1.8,3.9,3.6,7.6,5.6,11.6h0.3c2-4,3.9-7.7,5.7-11.6l6.4-12.8H409
			l-19.4,33.2v19.2h-12.9L376.8,403.7L376.8,403.7z"/>
		<path class="st0" d="M444.9,409.4H424l-4.5,13.5h-13l20.6-52.4h15.1l20.7,52.4h-13.5L444.9,409.4z M442.1,401.3l-1.9-5.7
			c-2-5.5-3.7-11.5-5.6-17.1h-0.3c-1.6,5.7-3.6,11.7-5.5,17.1l-1.9,5.7H442.1z"/>
		<path class="st0" d="M299.6,446.6h-18.1v-8.7h49.2v8.7h-18.2v43.7h-12.9V446.6z"/>
		<path class="st0" d="M341.1,437.9h39.4v8.7h-26.6v12.1h22.6v8.8h-22.6v14h27.5v8.8H341v-52.4H341.1z"/>
		<path class="st0" d="M391.3,464.3c0-17.3,13.6-27.4,29.9-27.4c8.2,0,14.7,3.2,18.9,6.7l-6.8,6.7c-3.2-2.6-7-4.4-11.8-4.4
			c-9.7,0-17,6.8-17,18.1c0,11.4,6.6,18.3,16.8,18.3c5.5,0,9.8-2.1,13.3-5.2l6.8,6.5c-5.3,5-12.2,7.7-20.5,7.7
			C404.5,491.3,391.3,481.8,391.3,464.3z"/>
		<path class="st0" d="M451.6,437.9h12.9v20.6h24.3v-20.6h12.8v52.4h-12.8v-22.7h-24.3v22.7h-12.9V437.9z"/>
	</g>
	<g>
		
			<linearGradient id="SVGID_1_" gradientUnits="userSpaceOnUse" x1="269.9159" y1="536.1991" x2="78.3506" y2="243.9388" gradientTransform="matrix(1 0 0 -1 0 567.89)">
			<stop  offset="1.079719e-03" style="stop-color:#0068B7"/>
			<stop  offset="1" style="stop-color:#89C997"/>
		</linearGradient>
		<path class="st1" d="M111.2,85.9c24.9,50.8,49.9,101.5,74.8,152.3c5.3,10.8,10.5,21.6,16.4,33.7c3.7-7.8,7-14.7,10.2-21.6
			c24.6-53.1,49.2-106.1,73.8-159.2c1.4-3,2.3-5.6,6.6-5.5c30.2,0.2,60.4,0.1,91.7,0.1c-7.9,17.1-15.4,33.3-22.8,49.5
			c-53.5,116-107,231.9-160.3,348c-2.7,5.9-5.7,8.3-12.4,8.2c-27.8-0.4-55.7-0.3-83.5,0c-6.7,0.1-8.4-1.1-5.2-7.8
			c15.8-33.3,31.2-66.8,47-100.1c2.2-4.6,2.1-8.1-0.2-12.6c-35.4-71.3-70.6-142.7-105.9-214.1C30,133.5,18.3,110.4,6.7,87.3
			c-0.4-0.7-0.8-1.3,0.2-1.8c4.7-1.4,9.5-0.6,14.3-0.6c27.4-0.1,54.9-0.1,82.3,0C106.1,84.8,108.9,83.8,111.2,85.9z"/>
		<path class="st2" d="M462,189.6c-13.5-13.7-26.5-27.8-40.6-40.9c-10.7-9.9-14.4-20.9-9.5-34.4c5.3-14.5,15.4-24.4,31-27
			c20.1-3.4,36.1,4.1,49.4,19.2c8.6,9.7,18.1,18.7,27.2,28c0,3.9-2.6,6.4-5.2,8.6c-16,13.9-31,28.9-45.7,44.2
			C467,189,465.2,191.7,462,189.6z"/>
		
			<linearGradient id="SVGID_00000171714008339651278440000009953054345558080911_" gradientUnits="userSpaceOnUse" x1="411.1273" y1="272.5177" x2="556.8317" y2="414.6343" gradientTransform="matrix(1 0 0 -1 0 567.89)">
			<stop  offset="1.079719e-03" style="stop-color:#0068B7"/>
			<stop  offset="1" style="stop-color:#89C997"/>
		</linearGradient>
		<path style="fill:url(#SVGID_00000171714008339651278440000009953054345558080911_);" d="M519.6,134.5l-149.5,148
			c0,0-24.7,26.4-2.6,50.6s46.4,13.4,55.8,5.2c9.4-8.3,127.4-124.9,127.4-124.9s8-8.1,10.6-18c1.8-7.3,0-18.5-4.8-22.9
			C556,172.2,519.6,134.5,519.6,134.5z"/>
	</g>
</g>
</svg>
